<svg width="28" height="29" viewBox="0 0 28 29" fill="none" xmlns="http://www.w3.org/2000/svg">
<path d="M11.7507 18.0215C13.6272 17.6833 15.1822 16.4295 15.9101 14.6674C16.638 12.9053 16.4212 10.9196 15.3304 9.35589L12.702 5.58747C12.266 4.96226 11.6532 4.50374 10.9304 4.2616C10.2074 4.0194 9.44225 4.01648 8.71716 4.25285C7.99243 4.48974 7.37634 4.94386 6.93547 5.56606C6.4946 6.18826 6.27073 6.92029 6.28779 7.68277L6.28913 7.73391C6.31787 9.64662 5.54495 11.4994 4.16371 12.8248C3.80746 13.1667 3.53174 13.571 3.34724 14.0176C3.24692 14.2604 3.17359 14.5161 3.12875 14.7809C3.00183 15.5328 3.11781 16.2893 3.46417 16.9689C3.8105 17.648 4.35475 18.1862 5.03797 18.5251C5.72119 18.8639 6.47879 18.9715 7.22925 18.8364L11.7507 18.0215Z" fill="#78C0DE"/>
<path d="M15.7596 7.34427C15.7399 8.13419 16.0753 8.87906 16.7042 9.44163C17.3026 9.97707 18.1014 10.2834 18.9536 10.3042C19.8054 10.3246 20.6179 10.0573 21.2419 9.55172C21.8972 9.02054 22.2687 8.29304 22.2875 7.50405C22.3266 5.91726 20.8941 4.58989 19.0932 4.54494C17.659 4.51089 16.4186 5.30075 15.954 6.42545C15.8354 6.71263 15.7674 7.02166 15.7596 7.34427Z" fill="#78C0DE"/>
<path d="M16.7238 12.9478C16.0167 14.6596 17.0281 16.7077 18.9783 17.5133C20.9291 18.3192 23.0914 17.582 23.7985 15.8702C24.5056 14.1586 23.4938 12.1105 21.5431 11.3047C19.5928 10.4991 17.4309 11.2362 16.7238 12.9478Z" fill="#78C0DE"/>
<path d="M13.64 17.9503L13.6399 17.9505C13.4438 18.1777 13.291 18.4291 13.1805 18.6966C12.6649 19.9449 13.0709 21.5369 14.2756 22.578C14.9689 23.1773 15.8261 23.5109 16.6891 23.517C17.5924 23.5236 18.3939 23.1753 18.9461 22.5363C19.4984 21.897 19.7267 21.0534 19.5892 20.1606C19.4579 19.3077 19.0036 18.508 18.3101 17.9089C16.8472 16.6449 14.7522 16.6635 13.64 17.9503Z" fill="#78C0DE"/>
<path d="M11.3522 24.6586L11.3529 24.6583C12.7126 23.838 13.0639 21.9164 12.1358 20.3742C11.2066 18.8327 9.34432 18.2444 7.98474 19.0626C7.48869 19.361 7.12666 19.806 6.91191 20.3259C6.53764 21.2319 6.6107 22.3656 7.20081 23.3471C8.13007 24.8884 9.99227 25.4768 11.3522 24.6586Z" fill="#78C0DE"/>
</svg>
